PathFileType	4	(X/Y/Z)	C:\Users\israe\Desktop\Doctoral Research\Projects\PhaseIA\OPENSIM_october\ExperimentalData\subject1\100\P1S100W01.trc
DataRate	CameraRate	NumFrames	NumMarkers	Units	OrigDataRate	OrigDataStartFrame	OrigNumFrames
100.000000	100.000000	3	136	mm	100.000000	61	246
Frame#	Time	PELVIS_cgm24O			PELVIS_cgm24A			PELVIS_cgm24L			PELVIS_cgm24P			LFEMUR_cgm24O			LFEMUR_cgm24A			LFEMUR_cgm24L			LFEMUR_cgm24P			LTIBIA_cgm24O			LTIBIA_cgm24A			LTIBIA_cgm24L			LTIBIA_cgm24P			LFOOT_cgm24O			LFOOT_cgm24A			LFOOT_cgm24L			LFOOT_cgm24P			LTOES_cgm24O			LTOES_cgm24A			LTOES_cgm24L			LTOES_cgm24P			RFEMUR_cgm24O			RFEMUR_cgm24A			RFEMUR_cgm24L			RFEMUR_cgm24P			RTIBIA_cgm24O			RTIBIA_cgm24A			RTIBIA_cgm24L			RTIBIA_cgm24P			RFOOT_cgm24O			RFOOT_cgm24A			RFOOT_cgm24L			RFOOT_cgm24P			RTOES_cgm24O			RTOES_cgm24A			RTOES_cgm24L			RTOES_cgm24P			THORAX_cgm24O			THORAX_cgm24A			THORAX_cgm24L			THORAX_cgm24P			LUPPERARM_cgm24O			LUPPERARM_cgm24A			LUPPERARM_cgm24L			LUPPERARM_cgm24P			LFOREARM_cgm24O			LFOREARM_cgm24A			LFOREARM_cgm24L			LFOREARM_cgm24P			LHAND_cgm24O			LHAND_cgm24A			LHAND_cgm24L			LHAND_cgm24P			RUPPERARM_cgm24O			RUPPERARM_cgm24A			RUPPERARM_cgm24L			RUPPERARM_cgm24P			RFOREARM_cgm24O			RFOREARM_cgm24A			RFOREARM_cgm24L			RFOREARM_cgm24P			RHAND_cgm24O			RHAND_cgm24A			RHAND_cgm24L			RHAND_cgm24P			HEAD_cgm24O			HEAD_cgm24A			HEAD_cgm24L			HEAD_cgm24P			LFHD			RFHD			LBHD			RBHD			C7			T10			CLAV			STRN			RBAK			LSHO			LELB			LFRM			LWRA			LWRB			LFIN			RSHO			RELB			RFRM			RWRA			RWRB			RFIN			LASI			RASI			LPSI			RPSI			LTHI			LTHAP			LTHAD			LKNE			LTIB			LTIAP			LTIAD			LANK			LHEE			LTOE			LFMH			LVMH			RTHI			RTHAP			RTHAD			RKNE			RTIB			RTIAP			RTIAD			RANK			RHEE			RTOE			RFMH			RVMH			RPel			LPel			LMEL			RMEL			LHJC_cgm24			RHJC_cgm24			LKJC_cgm24			RKJC_cgm24			LAJC_cgm24			RAJC_cgm24			LFJC_cgm24			RFJC_cgm24			LSJC_cgm24			RSJC_cgm24			LEJC_cgm24			REJC_cgm24			LHO_cgm24			RHO_cgm24			CentreOfMass_cgm24			
		X1	Y1	Z1	X2	Y2	Z2	X3	Y3	Z3	X4	Y4	Z4	X5	Y5	Z5	X6	Y6	Z6	X7	Y7	Z7	X8	Y8	Z8	X9	Y9	Z9	X10	Y10	Z10	X11	Y11	Z11	X12	Y12	Z12	X13	Y13	Z13	X14	Y14	Z14	X15	Y15	Z15	X16	Y16	Z16	X17	Y17	Z17	X18	Y18	Z18	X19	Y19	Z19	X20	Y20	Z20	X21	Y21	Z21	X22	Y22	Z22	X23	Y23	Z23	X24	Y24	Z24	X25	Y25	Z25	X26	Y26	Z26	X27	Y27	Z27	X28	Y28	Z28	X29	Y29	Z29	X30	Y30	Z30	X31	Y31	Z31	X32	Y32	Z32	X33	Y33	Z33	X34	Y34	Z34	X35	Y35	Z35	X36	Y36	Z36	X37	Y37	Z37	X38	Y38	Z38	X39	Y39	Z39	X40	Y40	Z40	X41	Y41	Z41	X42	Y42	Z42	X43	Y43	Z43	X44	Y44	Z44	X45	Y45	Z45	X46	Y46	Z46	X47	Y47	Z47	X48	Y48	Z48	X49	Y49	Z49	X50	Y50	Z50	X51	Y51	Z51	X52	Y52	Z52	X53	Y53	Z53	X54	Y54	Z54	X55	Y55	Z55	X56	Y56	Z56	X57	Y57	Z57	X58	Y58	Z58	X59	Y59	Z59	X60	Y60	Z60	X61	Y61	Z61	X62	Y62	Z62	X63	Y63	Z63	X64	Y64	Z64	X65	Y65	Z65	X66	Y66	Z66	X67	Y67	Z67	X68	Y68	Z68	X69	Y69	Z69	X70	Y70	Z70	X71	Y71	Z71	X72	Y72	Z72	X73	Y73	Z73	X74	Y74	Z74	X75	Y75	Z75	X76	Y76	Z76	X77	Y77	Z77	X78	Y78	Z78	X79	Y79	Z79	X80	Y80	Z80	X81	Y81	Z81	X82	Y82	Z82	X83	Y83	Z83	X84	Y84	Z84	X85	Y85	Z85	X86	Y86	Z86	X87	Y87	Z87	X88	Y88	Z88	X89	Y89	Z89	X90	Y90	Z90	X91	Y91	Z91	X92	Y92	Z92	X93	Y93	Z93	X94	Y94	Z94	X95	Y95	Z95	X96	Y96	Z96	X97	Y97	Z97	X98	Y98	Z98	X99	Y99	Z99	X100	Y100	Z100	X101	Y101	Z101	X102	Y102	Z102	X103	Y103	Z103	X104	Y104	Z104	X105	Y105	Z105	X106	Y106	Z106	X107	Y107	Z107	X108	Y108	Z108	X109	Y109	Z109	X110	Y110	Z110	X111	Y111	Z111	X112	Y112	Z112	X113	Y113	Z113	X114	Y114	Z114	X115	Y115	Z115	X116	Y116	Z116	X117	Y117	Z117	X118	Y118	Z118	X119	Y119	Z119	X120	Y120	Z120	X121	Y121	Z121	X122	Y122	Z122	X123	Y123	Z123	X124	Y124	Z124	X125	Y125	Z125	X126	Y126	Z126	X127	Y127	Z127	X128	Y128	Z128	X129	Y129	Z129	X130	Y130	Z130	X131	Y131	Z131	X132	Y132	Z132	X133	Y133	Z133	X134	Y134	Z134	X135	Y135	Z135	X136	Y136	Z136	

62	0.61	220.8890075683594	870.468994140625	-648.1959838867188	231.6476440429688	854.4334106445313	-477.6225585937499	392.2095642089844	872.7765502929688	-658.7847900390625	219.5852203369141	1041.365844726563	-632.0477294921874	280.1940002441406	478.2030029296876	-795.8920288085938	286.5902404785156	334.80712890625	-401.5173950195313	698.9998779296875	455.5985107421876	-810.903564453125	306.5644226074219	871.9812622070313	-653.1406860351563	241.8670043945313	115.0059967041016	-944.02197265625	318.8997497558594	-37.90042114257809	-589.04443359375	626.4713134765625	109.4378051757813	-1029.882446289063	280.1942749023438	478.2030639648438	-795.8922729492188	235.9900054931641	107.6050033569337	-1025.089965820313	251.7154388427734	328.6266479492188	-987.9158935546875	459.6016235351563	94.65630340576178	-1042.69482421875	220.8140411376953	145.8350067138673	-1245.969848632813	245.9470062255859	83.92870330810553	-885.2429809570313	245.9470062255859	83.92870330810553	-885.2429809570313	245.9470062255859	83.92870330810553	-885.2429809570313	245.9470062255859	83.92870330810553	-885.2429809570313	147.6230010986328	484.0820007324219	-481.0299987792968	210.1499938964844	646.2584228515625	-101.0460510253906	560.5818481445313	471.0923156738282	-543.4390869140625	135.2132568359375	868.9569091796875	-643.2518310546875	173.3249969482422	124.3899993896485	-307.1470031738281	84.86476898193359	289.1839599609375	46.81945800781251	562.9257202148438	185.5363006591797	-238.2488708496094	147.6226806640625	484.0823974609376	-481.0300292968749	189.6609954833984	59.33760070800783	-352.2139892578125	184.4028778076172	245.576416015625	-479.5498046875	409.6047058105469	91.9328079223633	-313.623046875	239.9010162353516	-63.86794281005856	-534.486572265625	157.5959930419922	141.4960021972657	-239.8639984130859	157.5959930419922	141.4960021972657	-239.8639984130859	157.5959930419922	141.4960021972657	-239.8639984130859	157.5959930419922	141.4960021972657	-239.8639984130859	219.7969970703125	1395.2900390625	-593.4260253906249	181.7925262451172	1427.3994140625	-124.077667236328	-250.5754089355469	1384.40087890625	-630.7684326171874	228.0850372314453	924.531494140625	-560.549072265625	471.2099914550781	1104.18994140625	-596.3619995117186	517.0685424804688	1075.368408203125	-863.4146728515624	206.8093872070313	1051.608764648438	-636.0903320312499	423.8800964355469	1370.000610351563	-633.1770629882811	471.1730041503906	943.3060302734375	-383.1759948730468	535.8048095703125	736.3224487304688	-539.370361328125	211.868408203125	891.7384033203125	-422.1381225585937	471.210205078125	1104.28662109375	-596.4865722656249	458.8080139160156	901.9660034179688	-327.8670043945312	543.1563110351563	989.2693481445313	-243.7578124999999	577.2080078125	820.6360473632813	-362.1849975585937	484.8399353027344	988.9971313476563	-444.3091430664062	3.942399740219116	1097.390014648438	-766.0520019531249	72.18142700195313	1166.5078125	-1015.188354492187	-253.4861602783203	1139.487060546875	-824.8833618164061	27.95735168457031	1352.249389648438	-688.7687377929686	-55.34569931030273	844.364013671875	-687.6749877929688	-11.85334396362305	755.5329589843751	-941.5477294921875	-317.6447143554688	887.2571411132813	-747.619384765625	4.165370941162109	1098.338623046875	-766.3465576171874	-72.11820220947266	769.052978515625	-670.5700073242188	-207.1920166015625	817.1641845703125	-591.1934204101563	13.9368896484375	781.4425048828125	-531.6409301757813	-37.3353157043457	925.2325439453125	-706.0430297851563	206.9129943847656	1653.920043945313	-652.1459960937499	204.5598602294922	1665.757080078125	-599.9997558593749	260.1614990234375	1659.214965820313	-650.9450683593749	202.0200653076172	1705.85009765625	-664.1547851562499	275.4391174316406	1673.955688476563	-601.6892089843749	133.4289703369141	1661.553833007813	-604.7922363281249	299.6827392578125	1649.869750976563	-699.1534423828124	119.0990753173828	1630.312744140625	-702.9514770507811	225.3874053955078	1485.006225585938	-717.3283691406249	239.2968902587891	1128.860717773438	-761.3458251953124	219.435302734375	1395.59814453125	-588.9508056640624	214.7295837402344	1228.90234375	-508.4183044433593	122.4978103637695	1327.262451171875	-789.1282348632811	422.4225463867188	1424.697509765625	-640.1171874999999	503.6634826660156	1112.17041015625	-580.4830932617186	482.4413757324219	1040.6005859375	-447.7981872558593	454.0429382324219	955.8101196289063	-369.7361755371093	493.5917358398438	936.7033081054688	-392.3519287109374	467.0889587402344	910.5382080078125	-319.6085815429687	24.8050708770752	1401.986694335938	-691.6475219726561	-32.43460845947266	1098.807250976563	-759.4423217773436	-63.50059127807617	965.838134765625	-703.7221069335936	-42.83377456665039	848.5986328125	-659.7239990234375	-75.14028930664063	843.30517578125	-711.398193359375	-84.06866455078125	773.3097534179688	-663.5474243164063	347.1176452636719	939.2730102539063	-590.5609741210936	107.7753219604492	950.8632202148438	-580.8302612304686	253.3143615722656	962.33447265625	-766.4368286132811	175.406982421875	959.6972045898438	-761.2983398437499	370.2490844726563	649.85791015625	-738.712890625	328.5491027832031	709.9727172851563	-607.1011352539063	309.3022766113281	610.7479858398438	-649.7781372070313	331.1372985839844	478.0871582031251	-800.9892578125	319.7510681152344	305.6477661132813	-868.697265625	275.0647277832031	336.9508056640626	-799.0426635742188	267.0908203125	242.6084136962891	-841.0581665039063	278.8331604003906	108.7663803100587	-953.83056640625	236.0903778076172	100.1224365234376	-1029.45361328125	251.0283355712891	76.72775268554693	-859.9588012695313	228.8623504638672	49.89853286743169	-814.6747436523438	314.9208374023438	41.14949798583989	-853.4609375	40.89096450805664	699.2816162109375	-564.5314331054688	115.8122482299805	784.7120971679688	-505.7343139648437	124.7948760986328	702.3341064453125	-476.7069396972656	98.69805145263672	501.3252868652344	-474.7738342285156	103.0871887207031	298.84033203125	-383.9015502929688	141.3173522949219	396.1659851074219	-372.270751953125	150.2832183837891	266.8088684082031	-323.7843627929688	134.6519012451172	116.2687683105469	-314.3385620117188	189.8597869873047	58.51062774658205	-349.61474609375	153.1446990966797	157.7048950195313	-211.8788299560547	180.6780548095703	163.9194946289063	-161.8165740966797	96.9622802734375	124.7335433959961	-191.2946166992188	50.48118591308594	970.90234375	-682.3096313476561	393.6541442871094	964.744873046875	-684.5020141601561	441.0818786621094	1091.875366210938	-596.4696044921874	32.0667610168457	1081.650146484375	-762.5710449218749	306.5650024414063	871.9819946289063	-653.1409912109375	135.2140045166016	868.9559936523438	-643.2520141601563	280.1940002441406	478.2030029296876	-795.8920288085938	147.6230010986328	484.0820007324219	-481.0299987792968	241.8670043945313	115.0059967041016	-944.02197265625	173.3249969482422	124.3899993896485	-307.1470031738281	245.9470062255859	83.92870330810553	-885.2429809570313	157.5959930419922	141.4960021972657	-239.8639984130859	421.2959899902344	1384.52001953125	-635.1870117187499	28.8882999420166	1362.130004882813	-685.7719726562499	471.2099914550781	1104.18994140625	-596.3619995117186	3.942399740219116	1097.390014648438	-766.0520019531249	458.8080139160156	901.9660034179688	-327.8670043945312	-72.11820220947266	769.052978515625	-670.5700073242188	222.4440002441406	983.052001953125	-646.8850097656249	
63	0.62	220.0299987792969	869.22998046875	-632.8699951171875	230.9994812011719	853.6398315429688	-462.2686767578124	391.3421630859375	870.26513671875	-643.7905883789063	219.9930572509766	1040.180419921875	-617.2456054687499	280.9129943847656	477.0130004882813	-782.8870239257813	291.1563720703125	331.3293151855469	-389.43310546875	699.7388305664063	457.3077087402344	-801.0872192382813	305.7044982910156	870.106689453125	-637.982177734375	242.947998046875	118.1169967651368	-941.239990234375	319.4165344238281	-44.69510650634762	-590.5716552734375	627.70068359375	115.0611267089844	-1026.559936523438	280.9137573242188	477.0130004882813	-782.8868408203125	236.8800048828125	113.004997253418	-1022.469970703125	252.5076446533203	332.8771057128907	-978.9752807617188	460.5272827148438	100.5760040283204	-1039.99609375	222.1347351074219	157.5193481445313	-1242.198974609375	246.9160003662109	85.37570190429693	-883.3629760742188	246.9160003662109	85.37570190429693	-883.3629760742188	246.9160003662109	85.37570190429693	-883.3629760742188	246.9160003662109	85.37570190429693	-883.3629760742188	148.5789947509766	484.1539916992188	-464.0889892578124	210.7224731445313	648.0420532226563	-84.77709960937496	561.5372314453125	472.7245178222657	-526.8065185546875	134.3554229736328	868.352783203125	-627.7582397460938	175.3619995117188	121.140998840332	-297.4200134277344	91.37638854980469	279.332275390625	60.62533569335939	565.879150390625	180.0585632324219	-231.8484954833984	148.5791931152344	484.1544494628906	-464.0886840820312	191.8090057373047	57.06250000000002	-343.8219909667969	186.1400756835938	245.8668060302735	-467.3037109375	411.6734008789063	89.35890197753908	-304.5342712402344	242.3505096435547	-62.25565338134762	-528.5804443359375	159.5850067138672	136.8249969482422	-229.8029937744141	159.5850067138672	136.8249969482422	-229.8029937744141	159.5850067138672	136.8249969482422	-229.8029937744141	159.5850067138672	136.8249969482422	-229.8029937744141	219.1349945068359	1393.719970703125	-579.3670043945311	181.3297729492188	1426.839111328125	-110.0727539062499	-251.2490081787109	1382.516967773438	-616.4692993164061	227.6707916259766	923.0386962890625	-545.46240234375	470.3190002441406	1102.660034179688	-582.3729858398436	515.9492797851563	1073.608154296875	-849.4398193359374	205.8392028808594	1050.2998046875	-621.8654174804686	423.2113647460938	1368.4892578125	-619.3389892578124	470.3080139160156	941.8660278320313	-369.1140136718749	534.627685546875	734.756103515625	-525.269775390625	210.9258117675781	890.5149536132813	-407.8450012207031	470.3185119628906	1102.753295898438	-582.4949951171874	457.9840087890625	900.6480102539063	-313.7090148925781	542.5462646484375	988.027099609375	-229.8938903808593	576.249755859375	819.130615234375	-348.0453186035156	483.9319152832031	987.4274291992188	-430.3576354980468	3.71550989151001	1095.31005859375	-751.4949951171874	72.53075408935547	1164.066528320313	-1000.572814941406	-253.5973510742188	1137.093994140625	-811.0512084960936	27.32270622253418	1350.318725585938	-674.5791625976561	-55.31719970703125	841.7739868164063	-674.3209838867188	-10.75399780273438	754.0590209960939	-928.39599609375	-317.4982299804688	884.3485107421875	-735.0040283203125	3.920799255371094	1096.189819335938	-751.7636108398436	-71.91560363769531	766.2459716796875	-657.781005859375	-207.0211639404297	813.43017578125	-577.9036254882813	14.24351501464844	777.7388305664063	-518.83935546875	-37.51569747924805	922.7764892578125	-692.0604858398438	206.0679931640625	1652.300048828125	-638.4869995117186	203.7083282470703	1664.173095703125	-586.3492431640624	259.3139953613281	1657.620727539063	-637.2888183593749	201.1509704589844	1704.21923828125	-650.5327758789061	274.5973205566406	1672.40283203125	-588.0395507812499	132.5681304931641	1659.924682617188	-591.1675415039061	298.8421630859375	1648.262573242188	-685.4902343749999	118.2643585205078	1628.612915039063	-689.2513427734374	224.6432189941406	1483.321044921875	-703.4922485351561	238.6982421875	1127.04296875	-746.8482055664061	218.7751159667969	1394.035766601563	-574.8933715820311	214.2043609619141	1227.497314453125	-493.8785705566406	121.8641738891602	1325.084838867188	-774.9248657226561	421.7427062988281	1423.135986328125	-626.3758544921874	502.7885131835938	1110.619384765625	-566.5200805664061	481.6156311035156	1039.094116210938	-433.8235778808593	453.2075500488281	954.3920288085938	-355.6597900390624	492.7094421386719	935.236572265625	-378.3106079101562	466.2863159179688	909.2272338867188	-305.4803161621093	24.10343360900879	1399.977416992188	-677.5827636718749	-32.65133285522461	1096.662475585938	-744.8152465820311	-63.60489273071289	963.4441528320313	-689.7009277343749	-42.77607345581055	845.8558349609375	-646.3587036132813	-75.13761901855469	840.8421630859375	-698.0299682617188	-83.86886596679688	770.42138671875	-650.7142333984375	346.9585266113281	937.6605224609375	-575.6104736328124	107.5701904296875	949.4459838867188	-565.3387451171874	252.8043212890625	960.3992309570313	-751.3625488281249	174.9014129638672	957.7592163085938	-746.0590209960936	370.3268737792969	648.8729248046875	-725.2423095703125	329.2404479980469	708.3502807617188	-592.8936767578125	310.2506408691406	609.0704956054688	-635.8571166992188	331.6944885253906	477.2623596191407	-788.423095703125	320.3922424316406	306.6806335449219	-860.3887329101563	276.0536804199219	335.7243957519532	-789.6571655273438	268.0671081542969	242.7574462890626	-834.5291748046875	279.8922729492188	111.5547256469727	-951.05517578125	236.9617004394531	105.1985931396485	-1027.178955078125	252.0195007324219	76.73613739013678	-858.099853515625	229.3562927246094	49.50703430175786	-814.8690185546875	315.0081176757813	40.67701721191411	-853.5679931640625	41.41405868530273	698.178466796875	-548.2830810546875	115.5996322631836	784.09326171875	-489.4593811035156	124.7784118652344	701.99365234375	-460.2770385742187	99.55434417724609	500.5578918457031	-457.8657836914062	104.6804046630859	297.2457275390625	-369.5741271972656	142.8710479736328	394.3306579589844	-356.827392578125	152.1543731689453	264.2742004394531	-310.5718383789063	136.5539245605469	113.9885482788086	-304.5966491699219	191.8356628417969	58.27495956420901	-341.4023742675781	155.1611328125	152.8914184570313	-201.8618011474609	182.5406799316406	157.4511108398438	-152.0643463134766	98.80933380126953	119.4455871582031	-182.5198516845703	50.12443542480469	969.1851196289063	-666.8250122070311	393.4446105957031	963.0821533203125	-669.5603027343749	440.1581726074219	1090.327270507813	-582.3721923828124	31.84548950195313	1079.59521484375	-747.9285278320311	305.7049865722656	870.1069946289063	-637.9819946289063	134.3560028076172	868.3519897460938	-627.7579956054688	280.9129943847656	477.0130004882813	-782.8870239257813	148.5789947509766	484.1539916992188	-464.0889892578124	242.947998046875	118.1169967651368	-941.239990234375	175.3619995117188	121.140998840332	-297.4200134277344	246.9160003662109	85.37570190429693	-883.3629760742188	159.5850067138672	136.8249969482422	-229.8029937744141	420.6449890136719	1382.969970703125	-621.3530273437499	28.2317008972168	1360.130004882813	-671.6179809570311	470.3190002441406	1102.660034179688	-582.3729858398436	3.71550989151001	1095.31005859375	-751.4949951171874	457.9840087890625	900.6480102539063	-313.7090148925781	-71.91560363769531	766.2459716796875	-657.781005859375	222.2619934082031	981.708984375	-632.8709716796874	
64	0.63	219.1230010986328	868.2360229492188	-617.3790283203125	230.2562255859375	853.1812744140625	-446.7402648925781	390.4195556640625	867.9008178710938	-628.584716796875	220.43896484375	1039.2373046875	-602.3781738281249	281.8450012207031	475.6960144042969	-768.8170166015625	295.724853515625	328.6627197265625	-375.9770812988281	700.6712646484375	459.0505676269532	-789.8450927734375	304.7928161621094	868.428466796875	-622.6347045898438	244.2449951171875	121.6480026245118	-937.8150024414063	319.8760375976563	-51.48062896728512	-591.939453125	629.1990966796875	121.0813293457032	-1022.274841308594	281.8446044921875	475.6954956054688	-768.817626953125	237.9490051269531	119.2279968261719	-1019.150024414063	253.6562805175781	337.5116271972657	-968.3040771484375	461.6260681152344	107.1902236938477	-1036.5693359375	223.7496032714844	171.0654296875001	-1237.3037109375	248.0509948730469	86.9901962280274	-881.0549926757813	248.0509948730469	86.9901962280274	-881.0549926757813	248.0509948730469	86.9901962280274	-881.0549926757813	248.0509948730469	86.9901962280274	-881.0549926757813	149.5579986572266	484.625	-446.8049926757812	212.0014343261719	650.4183349609375	-68.37133789062496	562.4019165039063	474.5055236816407	-510.4928894042968	133.4529724121094	868.0422973632813	-612.124267578125	177.1809997558594	117.6429977416992	-289.2149963378906	97.8963623046875	267.4277954101563	73.48733520507814	568.6212158203125	173.8784790039063	-226.8719329833984	149.5579223632813	484.6260681152344	-446.8058471679687	193.531005859375	54.88180160522463	-337.4159851074219	187.4217987060547	247.0069885253907	-455.6426391601563	413.39599609375	86.42227172851564	-297.5221252441406	244.0186309814453	-59.22366714477536	-525.452880859375	161.4660034179688	131.4340057373047	-221.1710052490234	161.4660034179688	131.4340057373047	-221.1710052490234	161.4660034179688	131.4340057373047	-221.1710052490234	161.4660034179688	131.4340057373047	-221.1710052490234	218.4589996337891	1392.359985351563	-565.3109741210936	180.88916015625	1426.566772460938	-96.07577514648429	-251.9392547607422	1380.833129882813	-602.1337280273436	227.2501220703125	921.7643432617188	-530.3011474609375	469.3569946289063	1101.300048828125	-568.6040039062499	514.6885986328125	1072.203247070313	-835.7167358398436	204.7781677246094	1049.244873046875	-607.8352050781249	422.5182495117188	1367.184326171875	-605.5159912109374	469.4599914550781	940.2369995117188	-355.5929870605468	533.3865966796875	733.27734375	-512.10888671875	209.9806823730469	889.185302734375	-394.0681762695312	469.3567810058594	1101.412475585938	-568.7562255859374	457.1830139160156	899.0170288085938	-300.2009887695312	541.9219970703125	986.3010864257813	-216.4653778076171	575.342529296875	817.4260864257813	-334.7278442382812	483.0382080078125	985.8229370117188	-416.8504638671874	3.425029993057251	1093.420043945313	-736.7620239257811	72.64608001708984	1161.737670898438	-985.8481445312499	-253.8125152587891	1134.857299804688	-796.8832397460936	26.66395950317383	1348.603149414063	-660.3140258789061	-55.29230117797852	839.4030151367188	-660.6069946289063	-9.840202331542969	752.6690673828125	-914.8612670898438	-317.3966369628906	881.6243896484375	-721.8654174804688	3.608852386474609	1094.213745117188	-737.0012207031249	-71.67990112304688	763.6729736328125	-644.5770263671875	-206.7581787109375	809.9349365234375	-564.1161499023438	14.70233154296875	774.3741455078125	-505.7106933593749	-37.7353515625	920.5346069335938	-677.7802124023438	205.2079925537109	1650.880004882813	-624.8330078124999	202.8452606201172	1662.797241210938	-572.7055053710936	258.451416015625	1656.228149414063	-623.6423950195311	200.2645874023438	1702.786254882813	-636.9237670898436	273.74267578125	1671.051513671875	-574.4046630859374	131.6946716308594	1658.495361328125	-577.5465698242186	297.9822998046875	1646.84716796875	-671.8381958007811	117.4105224609375	1627.10302734375	-675.5443725585936	223.8753204345703	1481.82275390625	-689.6465454101561	238.0712127685547	1125.407592773438	-732.2816772460936	218.1010284423828	1392.688110351563	-560.8365478515624	213.6686706542969	1226.33740234375	-479.3095092773437	121.1780471801758	1323.101318359375	-760.6674804687499	421.0469055175781	1421.770385742188	-612.6433105468749	501.8423767089844	1109.21630859375	-552.7621459960936	480.7790222167969	1037.513793945313	-420.2037353515624	452.3875732421875	952.7543334960938	-342.1011352539062	491.8431396484375	933.6083984375	-364.8250122070312	465.5029907226563	907.5872802734375	-291.9803771972656	23.37712860107422	1398.173461914063	-663.4552612304686	-32.92728042602539	1094.697631835938	-729.9902954101561	-63.72624969482422	961.2525024414063	-675.3839111328124	-42.699462890625	843.347412109375	-632.6472778320313	-75.15761566162109	838.583251953125	-684.2830200195313	-83.63065338134766	767.7659301757813	-637.4581298828125	346.7251586914063	936.2423095703125	-560.5452270507811	107.3366546630859	948.3148803710938	-549.7583007812499	252.3077239990234	958.6292114257813	-736.1856079101561	174.3933410644531	956.0479736328125	-730.7367553710936	370.4574584960938	647.8300170898438	-711.0263671875	329.9220275878906	706.9163208007813	-578.1478881835938	311.3035583496094	607.4891357421875	-621.1366577148438	332.4520263671875	476.2783813476563	-774.72998046875	321.2642517089844	307.8517150878907	-851.135009765625	277.2441101074219	334.4941711425782	-779.3137817382813	269.2838439941406	243.0738983154297	-827.1962280273438	281.1754455566406	114.7646636962891	-947.6078491210938	238.0049743652344	111.1927566528321	-1024.050048828125	253.1245880126953	76.73719024658209	-855.9475708007813	229.8906707763672	49.08284759521489	-815.1184692382813	315.1062622070313	40.18175506591802	-853.7318725585938	42.02286529541016	697.5408935546875	-531.6049194335938	115.5056991577148	783.926025390625	-472.9703369140624	124.9368286132813	702.0734252929688	-443.5632019042968	100.3799743652344	500.1231384277344	-440.6899414062499	106.1648712158203	295.6283874511719	-355.8455505371094	144.4326477050781	392.3708801269531	-341.6807861328125	153.9780883789063	261.4302062988281	-298.2068176269531	138.1881256103516	111.5229034423828	-296.3463439941406	193.3817443847656	58.17987442016604	-335.0496520996094	157.0938568115234	147.2033081054688	-193.1716613769531	184.3876953125	149.7087097167969	-143.6370544433594	100.5570526123047	113.2326126098633	-175.2392272949219	49.73963928222656	967.80859375	-651.2046508789061	393.2012023925781	961.5810546875	-654.4263305664061	439.1535949707031	1088.963256835938	-568.4819946289061	31.56358337402344	1077.723266601563	-733.1210327148436	304.7929992675781	868.4290161132813	-622.635009765625	133.4519958496094	868.0419921875	-612.1240234375	281.8450012207031	475.6960144042969	-768.8170166015625	149.5579986572266	484.625	-446.8049926757812	244.2449951171875	121.6480026245118	-937.8150024414063	177.1809997558594	117.6429977416992	-289.2149963378906	248.0509948730469	86.9901962280274	-881.0549926757813	161.4660034179688	131.4340057373047	-221.1710052490234	419.9769897460938	1381.609985351563	-607.5189819335936	27.55130004882813	1358.339965820313	-657.3959960937499	469.3569946289063	1101.300048828125	-568.6040039062499	3.425029993057251	1093.420043945313	-736.7620239257811	457.1830139160156	899.0170288085938	-300.2009887695312	-71.67990112304688	763.6729736328125	-644.5770263671875	222.0820007324219	980.5440063476563	-618.7589721679686	
